<svg width="20" height="20" viewBox="0 0 20 20" fill="none" xmlns="http://www.w3.org/2000/svg">
<path d="M8.39998 0.399915C7.11333 0.389614 5.84319 0.689811 4.69729 1.27504C3.55139 1.86026 2.56356 2.71325 1.8176 3.76163C1.07164 4.81001 0.58956 6.02286 0.412256 7.29727C0.234953 8.57169 0.36766 9.87006 0.799118 11.0823C1.23058 12.2944 1.94805 13.3847 2.89069 14.2605C3.83332 15.1363 4.97328 15.7718 6.21388 16.1131C7.45448 16.4544 8.75909 16.4914 10.0171 16.221C11.275 15.9506 12.4492 15.3808 13.44 14.5599L18.24 19.3599C18.3088 19.4516 18.3964 19.5275 18.4971 19.5823C18.5977 19.6372 18.7089 19.6698 18.8233 19.6779C18.9376 19.686 19.0523 19.6695 19.1597 19.6294C19.2671 19.5893 19.3646 19.5266 19.4457 19.4456C19.5267 19.3646 19.5894 19.267 19.6295 19.1597C19.6696 19.0523 19.6861 18.9375 19.678 18.8232C19.6698 18.7089 19.6372 18.5976 19.5824 18.497C19.5275 18.3964 19.4517 18.3087 19.36 18.2399L14.56 13.4399C15.5095 12.2695 16.1091 10.8547 16.2897 9.35848C16.4703 7.86223 16.2246 6.3454 15.5809 4.98268C14.9371 3.61997 13.9216 2.46681 12.6511 1.65603C11.3807 0.845251 9.90706 0.409828 8.39998 0.399915V0.399915ZM8.39998 1.99991C10.0974 1.99991 11.7252 2.6742 12.9255 3.87443C14.1257 5.07466 14.8 6.70253 14.8 8.39991C14.8 10.0973 14.1257 11.7252 12.9255 12.9254C11.7252 14.1256 10.0974 14.7999 8.39998 14.7999C6.7026 14.7999 5.07473 14.1256 3.8745 12.9254C2.67426 11.7252 1.99998 10.0973 1.99998 8.39991C1.99998 6.70253 2.67426 5.07466 3.8745 3.87443C5.07473 2.6742 6.7026 1.99991 8.39998 1.99991V1.99991Z" fill="black"/>
</svg>
